STARTFONT 2.1
FONT -FreeType-ChicagoFLF-Medium-R-Normal--19-180-75-75-P-90-ISO10646-1
SIZE 18 75 75
FONTBOUNDINGBOX 21 23 0 -4
COMMENT "Generated by fontforge, http://fontforge.sourceforge.net"
COMMENT ""
COMMENT "Converted from OpenType font "ChicagoFLF.ttf" by "otf2bdf 3.0"."
COMMENT ""
STARTPROPERTIES 19
FOUNDRY "FreeType"
FAMILY_NAME "ChicagoFLF"
WEIGHT_NAME "Medium"
SLANT "R"
SETWIDTH_NAME "Normal"
ADD_STYLE_NAME ""
PIXEL_SIZE 19
POINT_SIZE 180
RESOLUTION_X 75
RESOLUTION_Y 75
SPACING "P"
AVERAGE_WIDTH 90
CHARSET_REGISTRY "ISO10646"
CHARSET_ENCODING "1"
FONT_ASCENT 18
FONT_DESCENT 3
COPYRIGHT "4.1 (c)1990-92 by Richard A. Ware. All Rights Reserved."
_OTF_FONTFILE "ChicagoFLF.ttf"
_OTF_PSNAME "ChicagoFLF"
ENDPROPERTIES
CHARS 252
STARTCHAR $0005
ENCODING 5
SWIDTH 533 0
DWIDTH 10 0
BBX 8 3 1 12
BITMAP
43
FE
3C
ENDCHAR
STARTCHAR $0006
ENCODING 6
SWIDTH 320 0
DWIDTH 6 0
BBX 3 3 2 13
BITMAP
E0
E0
E0
ENDCHAR
STARTCHAR $0008
ENCODING 8
SWIDTH 426 0
DWIDTH 8 0
BBX 6 6 1 12
BITMAP
78
CC
84
CC
78
20
ENDCHAR
STARTCHAR $000A
ENCODING 10
SWIDTH 426 0
DWIDTH 8 0
BBX 6 3 1 13
BITMAP
6C
48
D8
ENDCHAR
STARTCHAR $000B
ENCODING 11
SWIDTH 320 0
DWIDTH 6 0
BBX 3 4 2 -4
BITMAP
C0
C0
E0
20
ENDCHAR
STARTCHAR $000C
ENCODING 12
SWIDTH 533 0
DWIDTH 10 0
BBX 8 3 1 13
BITMAP
E7
3C
18
ENDCHAR
STARTCHAR $000D
ENCODING 13
SWIDTH 320 0
DWIDTH 6 0
BBX 3 11 2 0
BITMAP
E0
E0
E0
E0
E0
E0
E0
E0
E0
E0
E0
ENDCHAR
STARTCHAR $0019
ENCODING 25
SWIDTH 746 0
DWIDTH 14 0
BBX 13 16 1 -1
BITMAP
0038
0030
0060
00C0
0080
0180
0300
0200
0600
0C00
1800
1800
3000
6000
6000
C000
ENDCHAR
STARTCHAR $001A
ENCODING 26
SWIDTH 800 0
DWIDTH 15 0
BBX 12 15 2 0
BITMAP
3F00
7F70
7000
7000
FC70
FC70
7070
7070
7070
7070
7070
7070
7070
7070
7070
ENDCHAR
STARTCHAR $001B
ENCODING 27
SWIDTH 746 0
DWIDTH 14 0
BBX 11 14 2 0
BITMAP
3FE0
7FE0
71E0
FDE0
FDE0
71E0
71E0
71E0
71E0
71E0
71E0
71E0
71E0
71E0
ENDCHAR
STARTCHAR $001C
ENCODING 28
SWIDTH 586 0
DWIDTH 11 0
BBX 10 14 0 0
BITMAP
3800
3800
3800
3800
3A00
3E00
3C00
3800
3800
7800
F800
B800
3FC0
3FC0
ENDCHAR
STARTCHAR $001D
ENCODING 29
SWIDTH 320 0
DWIDTH 6 0
BBX 6 14 0 0
BITMAP
38
38
38
38
38
3C
3C
38
38
78
F8
B8
38
38
ENDCHAR
STARTCHAR $001E
ENCODING 30
SWIDTH 693 0
DWIDTH 13 0
BBX 9 18 2 0
BITMAP
2300
1400
0800
0000
FF80
0380
0380
0380
0300
0600
0C00
1800
7000
E000
E000
E000
FF80
FF80
ENDCHAR
STARTCHAR $001F
ENCODING 31
SWIDTH 693 0
DWIDTH 13 0
BBX 9 16 2 0
BITMAP
7300
1C00
0800
0000
0000
FF80
0380
0780
0F00
1E00
3C00
7800
F000
E000
FF80
FF80
ENDCHAR
STARTCHAR $0020
ENCODING 32
SWIDTH 320 0
DWIDTH 6 0
BBX 0 0 0 0
BITMAP
ENDCHAR
STARTCHAR $0021
ENCODING 33
SWIDTH 533 0
DWIDTH 10 0
BBX 3 14 3 0
BITMAP
E0
E0
E0
E0
E0
E0
E0
E0
E0
E0
00
E0
E0
E0
ENDCHAR
STARTCHAR $0022
ENCODING 34
SWIDTH 586 0
DWIDTH 11 0
BBX 5 4 3 10
BITMAP
D8
D8
D8
D8
ENDCHAR
STARTCHAR $0023
ENCODING 35
SWIDTH 746 0
DWIDTH 14 0
BBX 12 12 1 2
BITMAP
0460
0C40
0C40
3FF0
0880
1880
1180
FFC0
FFC0
3100
2300
2200
ENDCHAR
STARTCHAR $0024
ENCODING 36
SWIDTH 586 0
DWIDTH 11 0
BBX 8 18 2 -2
BITMAP
10
10
7C
D6
92
D1
F0
F8
7C
3E
1F
1F
13
92
FE
7C
10
10
ENDCHAR
STARTCHAR $0025
ENCODING 37
SWIDTH 853 0
DWIDTH 16 0
BBX 12 14 2 0
BITMAP
FFC0
8880
8980
9900
F300
0200
0600
0400
0C40
09F0
1910
1910
31B0
70E0
ENDCHAR
STARTCHAR $0026
ENCODING 38
SWIDTH 853 0
DWIDTH 16 0
BBX 12 15 2 0
BITMAP
3E00
FF00
E380
E390
E390
F030
70F0
E3E0
E380
E380
E380
E380
E380
FF00
7E00
ENDCHAR
STARTCHAR $0027
ENCODING 39
SWIDTH 266 0
DWIDTH 5 0
BBX 1 3 2 11
BITMAP
80
80
80
ENDCHAR
STARTCHAR $0028
ENCODING 40
SWIDTH 426 0
DWIDTH 8 0
BBX 4 17 2 -2
BITMAP
30
60
E0
E0
E0
E0
E0
E0
E0
E0
E0
E0
E0
E0
E0
60
30
ENDCHAR
STARTCHAR $0029
ENCODING 41
SWIDTH 426 0
DWIDTH 8 0
BBX 4 17 2 -2
BITMAP
C0
60
70
70
70
70
70
70
70
70
70
70
70
70
70
60
C0
ENDCHAR
STARTCHAR $002A
ENCODING 42
SWIDTH 640 0
DWIDTH 12 0
BBX 9 9 1 6
BITMAP
0C00
0C00
6D80
FF00
1E00
3F00
EF80
8D00
0C00
ENDCHAR
STARTCHAR $002B
ENCODING 43
SWIDTH 640 0
DWIDTH 12 0
BBX 8 8 2 3
BITMAP
10
10
10
FF
FF
10
10
10
ENDCHAR
STARTCHAR $002C
ENCODING 44
SWIDTH 320 0
DWIDTH 6 0
BBX 3 6 2 -3
BITMAP
E0
E0
E0
60
60
C0
ENDCHAR
STARTCHAR $002D
ENCODING 45
SWIDTH 586 0
DWIDTH 11 0
BBX 8 2 2 6
BITMAP
FF
FF
ENDCHAR
STARTCHAR $002E
ENCODING 46
SWIDTH 320 0
DWIDTH 6 0
BBX 3 3 2 0
BITMAP
E0
E0
E0
ENDCHAR
STARTCHAR $002F
ENCODING 47
SWIDTH 586 0
DWIDTH 11 0
BBX 8 15 2 0
BITMAP
03
06
04
0C
0C
08
18
10
30
20
60
60
40
C0
80
ENDCHAR
STARTCHAR $0030
ENCODING 48
SWIDTH 693 0
DWIDTH 13 0
BBX 9 14 2 0
BITMAP
7E00
FF80
E380
E380
E380
E380
E380
E380
E380
E380
E380
E380
E380
7F00
ENDCHAR
STARTCHAR $0031
ENCODING 49
SWIDTH 693 0
DWIDTH 13 0
BBX 5 14 3 0
BITMAP
78
F8
B8
38
38
38
38
38
38
38
38
38
38
38
ENDCHAR
STARTCHAR $0032
ENCODING 50
SWIDTH 693 0
DWIDTH 13 0
BBX 9 15 2 0
BITMAP
3E00
FF00
C380
8380
0380
0380
0700
0E00
1C00
3800
7000
E000
E000
FF80
FF80
ENDCHAR
STARTCHAR $0033
ENCODING 51
SWIDTH 693 0
DWIDTH 13 0
BBX 9 15 2 0
BITMAP
FF80
FF80
0700
1E00
3C00
7E00
7F80
0380
0380
0380
0380
8380
C380
FF00
7E00
ENDCHAR
STARTCHAR $0034
ENCODING 52
SWIDTH 693 0
DWIDTH 13 0
BBX 11 14 2 0
BITMAP
0780
0F80
1F80
3B80
7380
E380
C380
8380
FFE0
0380
0380
0380
0380
0380
ENDCHAR
STARTCHAR $0035
ENCODING 53
SWIDTH 693 0
DWIDTH 13 0
BBX 9 14 2 0
BITMAP
FF80
FF80
E000
E000
E000
FE00
0380
0380
0380
0380
8380
C380
FF80
7F00
ENDCHAR
STARTCHAR $0036
ENCODING 54
SWIDTH 693 0
DWIDTH 13 0
BBX 9 14 2 0
BITMAP
0F00
1F00
3800
7000
E000
FE00
E380
E380
E380
E380
E380
E380
FF80
7F00
ENDCHAR
STARTCHAR $0037
ENCODING 55
SWIDTH 693 0
DWIDTH 13 0
BBX 9 14 2 0
BITMAP
FF80
FF80
0380
0380
0380
0380
0700
0E00
1C00
1C00
1C00
1C00
1C00
1C00
ENDCHAR
STARTCHAR $0038
ENCODING 56
SWIDTH 693 0
DWIDTH 13 0
BBX 9 14 2 0
BITMAP
7F00
FF80
E380
E380
E380
E380
E300
7F00
E380
E380
E380
E380
FF80
7F00
ENDCHAR
STARTCHAR $0039
ENCODING 57
SWIDTH 693 0
DWIDTH 13 0
BBX 9 15 2 0
BITMAP
3E00
FF00
E380
E380
E380
E380
E380
E380
E380
7F80
0300
0700
0E00
7C00
7800
ENDCHAR
STARTCHAR $003A
ENCODING 58
SWIDTH 320 0
DWIDTH 6 0
BBX 3 11 2 0
BITMAP
E0
E0
E0
00
00
00
00
00
E0
E0
E0
ENDCHAR
STARTCHAR $003B
ENCODING 59
SWIDTH 320 0
DWIDTH 6 0
BBX 3 14 2 -3
BITMAP
E0
E0
E0
00
00
00
00
00
E0
E0
E0
60
60
C0
ENDCHAR
STARTCHAR $003C
ENCODING 60
SWIDTH 533 0
DWIDTH 10 0
BBX 8 10 1 2
BITMAP
0F
1C
3C
78
70
F0
78
3C
1C
0F
ENDCHAR
STARTCHAR $003D
ENCODING 61
SWIDTH 693 0
DWIDTH 13 0
BBX 9 5 2 5
BITMAP
FF80
FF80
0000
FF80
FF80
ENDCHAR
STARTCHAR $003E
ENCODING 62
SWIDTH 533 0
DWIDTH 10 0
BBX 8 10 1 2
BITMAP
F0
78
3C
1C
0E
0F
1C
3C
78
F0
ENDCHAR
STARTCHAR $003F
ENCODING 63
SWIDTH 693 0
DWIDTH 13 0
BBX 9 14 2 0
BITMAP
7F00
C380
8380
0380
0700
0E00
1E00
1C00
1C00
0000
0000
1C00
1C00
1C00
ENDCHAR
STARTCHAR $0040
ENCODING 64
SWIDTH 906 0
DWIDTH 17 0
BBX 14 13 2 0
BITMAP
1FC0
7FF0
C018
800C
8FCC
98CC
98CC
98CC
9FFC
8FF8
C000
FFE0
3FE0
ENDCHAR
STARTCHAR $0041
ENCODING 65
SWIDTH 693 0
DWIDTH 13 0
BBX 9 14 2 0
BITMAP
7F00
E380
E380
E380
E380
E380
FF80
FF80
E380
E380
E380
E380
E380
E380
ENDCHAR
STARTCHAR $0042
ENCODING 66
SWIDTH 693 0
DWIDTH 13 0
BBX 9 14 2 0
BITMAP
FF00
E380
E380
E380
E380
E380
FF00
FF80
E380
E380
E380
E380
FF80
FF00
ENDCHAR
STARTCHAR $0043
ENCODING 67
SWIDTH 693 0
DWIDTH 13 0
BBX 9 14 2 0
BITMAP
7F00
FF80
E180
E080
E000
E000
E000
E000
E000
E000
E080
E180
FF80
7F00
ENDCHAR
STARTCHAR $0044
ENCODING 68
SWIDTH 693 0
DWIDTH 13 0
BBX 9 14 2 0
BITMAP
FF00
FF80
E380
E380
E380
E380
E380
E380
E380
E380
E380
E380
E380
FF00
ENDCHAR
STARTCHAR $0045
ENCODING 69
SWIDTH 586 0
DWIDTH 11 0
BBX 8 15 2 -1
BITMAP
FF
FF
E0
E0
E0
E0
E0
FC
E0
E0
E0
E0
E0
FF
FF
ENDCHAR
STARTCHAR $0046
ENCODING 70
SWIDTH 586 0
DWIDTH 11 0
BBX 8 14 2 0
BITMAP
FF
FF
E0
E0
E0
E0
E0
FC
E0
E0
E0
E0
E0
E0
ENDCHAR
STARTCHAR $0047
ENCODING 71
SWIDTH 693 0
DWIDTH 13 0
BBX 9 15 2 -1
BITMAP
7E00
FF00
E180
E080
E000
E000
E000
EF80
E380
E380
E380
E380
E380
FF00
3E00
ENDCHAR
STARTCHAR $0048
ENCODING 72
SWIDTH 693 0
DWIDTH 13 0
BBX 9 14 2 0
BITMAP
E380
E380
E380
E380
E380
E380
FF80
FF80
E380
E380
E380
E380
E380
E380
ENDCHAR
STARTCHAR $0049
ENCODING 73
SWIDTH 533 0
DWIDTH 10 0
BBX 3 14 3 0
BITMAP
E0
E0
E0
E0
E0
E0
E0
E0
E0
E0
E0
E0
E0
E0
ENDCHAR
STARTCHAR $004A
ENCODING 74
SWIDTH 586 0
DWIDTH 11 0
BBX 10 14 0 0
BITMAP
03C0
03C0
03C0
03C0
03C0
03C0
03C0
E3C0
E3C0
E3C0
E3C0
E380
7F80
3F00
ENDCHAR
STARTCHAR $004B
ENCODING 75
SWIDTH 746 0
DWIDTH 14 0
BBX 11 14 2 0
BITMAP
E1E0
E380
E700
EE00
FC00
F800
F000
F000
F800
FC00
EE00
E700
E380
E1E0
ENDCHAR
STARTCHAR $004C
ENCODING 76
SWIDTH 586 0
DWIDTH 11 0
BBX 8 14 2 0
BITMAP
E0
E0
E0
E0
E0
E0
E0
E0
E0
E0
E0
E0
FF
FF
ENDCHAR
STARTCHAR $004D
ENCODING 77
SWIDTH 1013 0
DWIDTH 19 0
BBX 15 14 2 0
BITMAP
8002
C006
E00E
F01E
F83E
BC7E
9EEE
8FCE
878E
830E
820E
800E
800E
800E
ENDCHAR
STARTCHAR $004E
ENCODING 78
SWIDTH 746 0
DWIDTH 14 0
BBX 11 14 2 0
BITMAP
8060
C060
E060
F060
F860
FC60
BE60
9F60
8FE0
87E0
83E0
81E0
80E0
8060
ENDCHAR
STARTCHAR $004F
ENCODING 79
SWIDTH 693 0
DWIDTH 13 0
BBX 9 14 2 0
BITMAP
7F00
FF80
E380
E380
E380
E380
E380
E380
E380
E380
E380
E380
E380
7F00
ENDCHAR
STARTCHAR $0050
ENCODING 80
SWIDTH 693 0
DWIDTH 13 0
BBX 9 14 2 0
BITMAP
FF00
FF80
E380
E380
E380
E380
FF80
FF00
E000
E000
E000
E000
E000
E000
ENDCHAR
STARTCHAR $0051
ENCODING 81
SWIDTH 693 0
DWIDTH 13 0
BBX 9 16 2 -2
BITMAP
7F00
FF80
E380
E380
E380
E380
E380
E380
E380
E380
E380
E380
E380
7F00
0380
0380
ENDCHAR
STARTCHAR $0052
ENCODING 82
SWIDTH 693 0
DWIDTH 13 0
BBX 9 14 2 0
BITMAP
FF00
E380
E380
E380
E380
E380
FF00
FF00
E380
E380
E380
E380
E380
E380
ENDCHAR
STARTCHAR $0053
ENCODING 83
SWIDTH 586 0
DWIDTH 11 0
BBX 7 15 2 0
BITMAP
38
FE
E2
E2
E0
F0
78
3C
1E
0E
0E
8E
CE
FE
7C
ENDCHAR
STARTCHAR $0054
ENCODING 84
SWIDTH 533 0
DWIDTH 10 0
BBX 10 14 0 0
BITMAP
FFC0
FFC0
1C00
1C00
1C00
1C00
1C00
1C00
1C00
1C00
1C00
1C00
1C00
1C00
ENDCHAR
STARTCHAR $0055
ENCODING 85
SWIDTH 693 0
DWIDTH 13 0
BBX 9 14 2 0
BITMAP
E380
E380
E380
E380
E380
E380
E380
E380
E380
E380
E380
E380
FF80
7F00
ENDCHAR
STARTCHAR $0056
ENCODING 86
SWIDTH 693 0
DWIDTH 13 0
BBX 9 14 2 0
BITMAP
E380
E380
E380
E380
E380
E380
E380
E380
E380
E380
E380
E700
EE00
FC00
ENDCHAR
STARTCHAR $0057
ENCODING 87
SWIDTH 1013 0
DWIDTH 19 0
BBX 15 14 2 0
BITMAP
E38E
E38E
E38E
E38E
E38E
E38E
E38E
E38E
E38E
E38E
E38E
E38C
E398
FFF0
ENDCHAR
STARTCHAR $0058
ENCODING 88
SWIDTH 693 0
DWIDTH 13 0
BBX 9 14 2 0
BITMAP
E380
E380
E380
E380
E380
E380
FF00
FF00
E380
E380
E380
E380
E380
E380
ENDCHAR
STARTCHAR $0059
ENCODING 89
SWIDTH 693 0
DWIDTH 13 0
BBX 9 14 2 0
BITMAP
E380
E380
E380
E380
E380
E300
7600
1C00
1C00
1C00
1C00
1C00
1C00
1C00
ENDCHAR
STARTCHAR $005A
ENCODING 90
SWIDTH 693 0
DWIDTH 13 0
BBX 9 15 2 -1
BITMAP
FF80
FF80
0380
0380
0380
0700
0E00
1C00
3000
6000
E000
E000
E000
FF80
FF80
ENDCHAR
STARTCHAR $005B
ENCODING 91
SWIDTH 426 0
DWIDTH 8 0
BBX 4 18 2 -2
BITMAP
F0
F0
E0
E0
E0
E0
E0
E0
E0
E0
E0
E0
E0
E0
E0
E0
F0
F0
ENDCHAR
STARTCHAR $005C
ENCODING 92
SWIDTH 640 0
DWIDTH 12 0
BBX 8 17 2 -2
BITMAP
C0
C0
60
60
20
30
30
18
18
08
0C
0C
06
06
02
03
01
ENDCHAR
STARTCHAR $005D
ENCODING 93
SWIDTH 426 0
DWIDTH 8 0
BBX 4 18 2 -2
BITMAP
F0
F0
70
70
70
70
70
70
70
70
70
70
70
70
70
70
F0
F0
ENDCHAR
STARTCHAR $005E
ENCODING 94
SWIDTH 693 0
DWIDTH 13 0
BBX 8 5 3 10
BITMAP
10
38
2C
44
83
ENDCHAR
STARTCHAR $005F
ENCODING 95
SWIDTH 693 0
DWIDTH 13 0
BBX 13 2 0 0
BITMAP
FFF8
FFF8
ENDCHAR
STARTCHAR $0060
ENCODING 96
SWIDTH 480 0
DWIDTH 9 0
BBX 5 3 2 12
BITMAP
C0
20
18
ENDCHAR
STARTCHAR $0061
ENCODING 97
SWIDTH 693 0
DWIDTH 13 0
BBX 9 15 2 0
BITMAP
3600
3600
0000
7E00
FF00
8380
0380
7F80
E380
E380
E380
E380
E380
FF80
7F80
ENDCHAR
STARTCHAR $0062
ENCODING 98
SWIDTH 693 0
DWIDTH 13 0
BBX 9 14 2 0
BITMAP
E000
E000
E000
FF00
FF80
E380
E380
E380
E380
E380
E380
E380
E380
FF00
ENDCHAR
STARTCHAR $0063
ENCODING 99
SWIDTH 586 0
DWIDTH 11 0
BBX 8 11 2 0
BITMAP
7C
EE
E2
E1
E0
E0
E0
E0
E3
FE
7C
ENDCHAR
STARTCHAR $0064
ENCODING 100
SWIDTH 693 0
DWIDTH 13 0
BBX 9 14 2 0
BITMAP
0380
0380
0380
7F80
FF80
E380
E380
E380
E380
E380
E380
E380
E380
7F80
ENDCHAR
STARTCHAR $0065
ENCODING 101
SWIDTH 693 0
DWIDTH 13 0
BBX 9 11 2 0
BITMAP
7F00
E380
E380
E380
FF80
FF80
E000
E000
E180
FF00
3E00
ENDCHAR
STARTCHAR $0066
ENCODING 102
SWIDTH 533 0
DWIDTH 10 0
BBX 8 15 2 0
BITMAP
3F
7F
70
70
FC
FC
70
70
70
70
70
70
70
70
70
ENDCHAR
STARTCHAR $0067
ENCODING 103
SWIDTH 693 0
DWIDTH 13 0
BBX 9 15 2 -4
BITMAP
7F80
E380
E380
E380
E380
E380
E380
E380
E380
FF80
0380
0380
8380
FF80
7E00
ENDCHAR
STARTCHAR $0068
ENCODING 104
SWIDTH 693 0
DWIDTH 13 0
BBX 9 14 2 0
BITMAP
E000
E000
E000
FE00
E380
E380
E380
E380
E380
E380
E380
E380
E380
E380
ENDCHAR
STARTCHAR $0069
ENCODING 105
SWIDTH 320 0
DWIDTH 6 0
BBX 3 14 2 0
BITMAP
E0
E0
00
E0
E0
E0
E0
E0
E0
E0
E0
E0
E0
E0
ENDCHAR
STARTCHAR $006A
ENCODING 106
SWIDTH 533 0
DWIDTH 10 0
BBX 8 18 0 -4
BITMAP
07
07
00
07
07
07
07
07
07
07
07
07
07
07
C7
C7
7E
3C
ENDCHAR
STARTCHAR $006B
ENCODING 107
SWIDTH 693 0
DWIDTH 13 0
BBX 9 14 2 0
BITMAP
E000
E000
E000
E380
E700
EE00
FC00
F800
F000
F800
FC00
FE00
EF00
E780
ENDCHAR
STARTCHAR $006C
ENCODING 108
SWIDTH 320 0
DWIDTH 6 0
BBX 3 14 2 0
BITMAP
E0
E0
E0
E0
E0
E0
E0
E0
E0
E0
E0
E0
E0
E0
ENDCHAR
STARTCHAR $006D
ENCODING 109
SWIDTH 1013 0
DWIDTH 19 0
BBX 15 11 2 0
BITMAP
FFFC
FFFE
E38E
E38E
E38E
E38E
E38E
E38E
E38E
E38E
E38E
ENDCHAR
STARTCHAR $006E
ENCODING 110
SWIDTH 693 0
DWIDTH 13 0
BBX 9 11 2 0
BITMAP
FE00
FF80
E380
E380
E380
E380
E380
E380
E380
E380
E380
ENDCHAR
STARTCHAR $006F
ENCODING 111
SWIDTH 693 0
DWIDTH 13 0
BBX 9 11 2 0
BITMAP
7F00
FF80
E380
E380
E380
E380
E380
E380
E380
E380
7F00
ENDCHAR
STARTCHAR $0070
ENCODING 112
SWIDTH 693 0
DWIDTH 13 0
BBX 9 14 2 -3
BITMAP
FF00
FF80
E380
E380
E380
E380
E380
E380
E380
E380
FF00
E000
E000
E000
ENDCHAR
STARTCHAR $0071
ENCODING 113
SWIDTH 693 0
DWIDTH 13 0
BBX 9 14 2 -3
BITMAP
7F80
E380
E380
E380
E380
E380
E380
E380
E380
FF80
7F80
0380
0380
0380
ENDCHAR
STARTCHAR $0072
ENCODING 114
SWIDTH 533 0
DWIDTH 10 0
BBX 8 11 2 0
BITMAP
EF
FE
F0
E0
E0
E0
E0
E0
E0
E0
E0
ENDCHAR
STARTCHAR $0073
ENCODING 115
SWIDTH 586 0
DWIDTH 11 0
BBX 7 11 2 0
BITMAP
7C
FE
E2
E2
78
3C
1E
8E
CE
FE
7C
ENDCHAR
STARTCHAR $0074
ENCODING 116
SWIDTH 480 0
DWIDTH 9 0
BBX 6 15 2 -1
BITMAP
70
70
70
FC
FC
70
70
70
70
70
70
70
70
7C
1C
ENDCHAR
STARTCHAR $0075
ENCODING 117
SWIDTH 693 0
DWIDTH 13 0
BBX 9 11 2 0
BITMAP
E380
E380
E380
E380
E380
E380
E380
E380
E380
FF80
7F80
ENDCHAR
STARTCHAR $0076
ENCODING 118
SWIDTH 693 0
DWIDTH 13 0
BBX 9 11 2 0
BITMAP
E380
E380
E380
E380
E380
E380
E380
E380
E700
FE00
FC00
ENDCHAR
STARTCHAR $0077
ENCODING 119
SWIDTH 1013 0
DWIDTH 19 0
BBX 15 11 2 0
BITMAP
E38E
E38E
E38E
E38E
E38E
E38E
E38E
E38E
E38C
FFF8
FFF0
ENDCHAR
STARTCHAR $0078
ENCODING 120
SWIDTH 693 0
DWIDTH 13 0
BBX 9 11 2 0
BITMAP
E380
E380
E380
E380
E300
7E00
E300
E380
E380
E380
E380
ENDCHAR
STARTCHAR $0079
ENCODING 121
SWIDTH 693 0
DWIDTH 13 0
BBX 9 15 2 -4
BITMAP
E380
E380
E380
E380
E380
E380
E380
E380
E380
7F80
0380
0380
8380
FF00
7E00
ENDCHAR
STARTCHAR $007A
ENCODING 122
SWIDTH 693 0
DWIDTH 13 0
BBX 9 12 2 0
BITMAP
FF80
FF80
0380
0780
0F00
1E00
3C00
7800
F000
E000
FF80
FF80
ENDCHAR
STARTCHAR $007B
ENCODING 123
SWIDTH 426 0
DWIDTH 8 0
BBX 4 19 2 -3
BITMAP
10
30
60
60
60
60
60
60
60
C0
60
60
60
60
60
60
60
30
30
ENDCHAR
STARTCHAR $007C
ENCODING 124
SWIDTH 426 0
DWIDTH 8 0
BBX 2 17 3 -2
BITMAP
C0
C0
C0
C0
C0
C0
C0
C0
C0
C0
C0
C0
C0
C0
C0
C0
C0
ENDCHAR
STARTCHAR $007D
ENCODING 125
SWIDTH 426 0
DWIDTH 8 0
BBX 4 18 2 -3
BITMAP
C0
E0
60
60
60
60
60
60
30
30
60
60
60
60
60
60
C0
C0
ENDCHAR
STARTCHAR $007E
ENCODING 126
SWIDTH 693 0
DWIDTH 13 0
BBX 9 4 2 8
BITMAP
2080
F980
DF80
8700
ENDCHAR
STARTCHAR $00A1
ENCODING 161
SWIDTH 533 0
DWIDTH 10 0
BBX 3 14 3 -3
BITMAP
E0
E0
E0
00
E0
E0
E0
E0
E0
E0
E0
E0
E0
E0
ENDCHAR
STARTCHAR $00A2
ENCODING 162
SWIDTH 586 0
DWIDTH 11 0
BBX 8 13 2 0
BITMAP
10
10
FE
D6
92
91
90
90
93
D2
FE
38
10
ENDCHAR
STARTCHAR $00A3
ENCODING 163
SWIDTH 746 0
DWIDTH 14 0
BBX 11 15 2 0
BITMAP
3F00
7F80
7180
7000
7000
7000
7000
FC00
FC00
7000
7000
7000
7060
FFE0
FFC0
ENDCHAR
STARTCHAR $00A4
ENCODING 164
SWIDTH 586 0
DWIDTH 11 0
BBX 8 8 2 3
BITMAP
92
FF
C6
82
82
C6
FE
93
ENDCHAR
STARTCHAR $00A5
ENCODING 165
SWIDTH 853 0
DWIDTH 16 0
BBX 14 14 1 0
BITMAP
F83C
3C70
1EE0
7FF8
7FF8
0700
7F00
7FF8
0700
0700
0700
0700
0700
0700
ENDCHAR
STARTCHAR $00A6
ENCODING 166
SWIDTH 426 0
DWIDTH 8 0
BBX 2 14 3 0
BITMAP
C0
C0
C0
C0
C0
00
00
00
00
00
00
C0
C0
C0
ENDCHAR
STARTCHAR $00A7
ENCODING 167
SWIDTH 586 0
DWIDTH 11 0
BBX 8 20 2 -4
BITMAP
FE
FE
83
80
C0
E0
F0
98
8E
87
C3
63
36
1E
0E
06
03
83
FE
FE
ENDCHAR
STARTCHAR $00A8
ENCODING 168
SWIDTH 533 0
DWIDTH 10 0
BBX 6 2 2 13
BITMAP
84
84
ENDCHAR
STARTCHAR $00A9
ENCODING 169
SWIDTH 853 0
DWIDTH 16 0
BBX 14 15 1 0
BITMAP
0780
1FE0
3030
6018
C7CC
CFCC
8C44
8C04
8C04
8C44
CCCC
6FD8
7038
1FE0
0FC0
ENDCHAR
STARTCHAR $00AA
ENCODING 170
SWIDTH 586 0
DWIDTH 11 0
BBX 8 14 2 1
BITMAP
7C
FE
87
7F
C7
C7
C7
C7
C7
7F
00
00
FF
FF
ENDCHAR
STARTCHAR $00AB
ENCODING 171
SWIDTH 853 0
DWIDTH 16 0
BBX 13 12 1 0
BITMAP
0738
0E70
1CE0
39C0
7380
E700
E300
7380
39C0
1CE0
0E70
0738
ENDCHAR
STARTCHAR $00AC
ENCODING 172
SWIDTH 586 0
DWIDTH 11 0
BBX 8 5 2 3
BITMAP
FF
FF
03
03
03
ENDCHAR
STARTCHAR $00AE
ENCODING 174
SWIDTH 853 0
DWIDTH 16 0
BBX 14 15 1 0
BITMAP
0780
1FE0
3030
6018
CFCC
C84C
8844
8F84
8844
8844
C84C
6858
7038
1FE0
0FC0
ENDCHAR
STARTCHAR $00AF
ENCODING 175
SWIDTH 533 0
DWIDTH 10 0
BBX 6 2 2 13
BITMAP
FC
FC
ENDCHAR
STARTCHAR $00B0
ENCODING 176
SWIDTH 533 0
DWIDTH 10 0
BBX 6 7 2 8
BITMAP
30
F8
8C
8C
8C
F8
30
ENDCHAR
STARTCHAR $00B1
ENCODING 177
SWIDTH 586 0
DWIDTH 11 0
BBX 8 11 2 0
BITMAP
10
10
10
FF
FF
10
10
10
00
FF
FF
ENDCHAR
STARTCHAR $00B2
ENCODING 178
SWIDTH 426 0
DWIDTH 8 0
BBX 5 7 1 7
BITMAP
78
88
08
10
20
40
F8
ENDCHAR
STARTCHAR $00B3
ENCODING 179
SWIDTH 426 0
DWIDTH 8 0
BBX 5 7 1 8
BITMAP
F8
30
70
08
08
88
78
ENDCHAR
STARTCHAR $00B4
ENCODING 180
SWIDTH 480 0
DWIDTH 9 0
BBX 4 3 3 12
BITMAP
30
40
C0
ENDCHAR
STARTCHAR $00B5
ENCODING 181
SWIDTH 853 0
DWIDTH 16 0
BBX 12 14 2 -3
BITMAP
71E0
71E0
71E0
71E0
71E0
71E0
71E0
71E0
71E0
7FF0
7FF0
6000
E000
C000
ENDCHAR
STARTCHAR $00B6
ENCODING 182
SWIDTH 693 0
DWIDTH 13 0
BBX 9 14 2 0
BITMAP
7F80
FF80
CD80
8D80
8D80
8D80
CD80
7D80
0D80
0D80
0D80
0D80
0D80
0D80
ENDCHAR
STARTCHAR $00B7
ENCODING 183
SWIDTH 320 0
DWIDTH 6 0
BBX 3 3 2 6
BITMAP
E0
E0
E0
ENDCHAR
STARTCHAR $00B8
ENCODING 184
SWIDTH 320 0
DWIDTH 6 0
BBX 4 4 1 -4
BITMAP
30
30
F0
C0
ENDCHAR
STARTCHAR $00B9
ENCODING 185
SWIDTH 320 0
DWIDTH 6 0
BBX 2 7 2 8
BITMAP
C0
40
40
40
40
40
40
ENDCHAR
STARTCHAR $00BA
ENCODING 186
SWIDTH 586 0
DWIDTH 11 0
BBX 8 14 2 1
BITMAP
7C
C6
C7
C7
C7
C7
C7
C7
FF
7E
00
00
FF
FF
ENDCHAR
STARTCHAR $00BB
ENCODING 187
SWIDTH 853 0
DWIDTH 16 0
BBX 14 12 1 0
BITMAP
E700
3380
19C0
0CE0
0E70
0738
039C
0630
0C60
18C0
3180
E700
ENDCHAR
STARTCHAR $00BC
ENCODING 188
SWIDTH 800 0
DWIDTH 15 0
BBX 13 15 1 0
BITMAP
3018
7030
3060
3040
3080
3180
3300
0200
0430
0C70
18B0
3130
21F8
4030
C030
ENDCHAR
STARTCHAR $00BD
ENCODING 189
SWIDTH 800 0
DWIDTH 15 0
BBX 13 15 1 0
BITMAP
3018
7030
3060
3040
30C0
3180
3300
0200
04F0
0C18
1818
1030
2060
60C0
C0F8
ENDCHAR
STARTCHAR $00BE
ENCODING 190
SWIDTH 800 0
DWIDTH 15 0
BBX 13 15 1 0
BITMAP
F818
3030
7060
0840
0880
8980
7B00
0200
0430
0C70
18B0
3130
21F8
4030
C030
ENDCHAR
STARTCHAR $00BF
ENCODING 191
SWIDTH 693 0
DWIDTH 13 0
BBX 9 14 2 -3
BITMAP
1C00
1C00
1C00
0000
0000
1C00
1C00
3800
7000
E000
E000
E180
7F80
3E00
ENDCHAR
STARTCHAR $00C0
ENCODING 192
SWIDTH 693 0
DWIDTH 13 0
BBX 9 17 2 0
BITMAP
3000
0800
0400
7F00
E380
E380
E380
E380
E380
FF80
FF80
E380
E380
E380
E380
E380
E380
ENDCHAR
STARTCHAR $00C1
ENCODING 193
SWIDTH 693 0
DWIDTH 13 0
BBX 9 17 2 0
BITMAP
0600
0800
0000
7F00
E380
E380
E380
E380
E380
FF80
FF80
E380
E380
E380
E380
E380
E380
ENDCHAR
STARTCHAR $00C2
ENCODING 194
SWIDTH 693 0
DWIDTH 13 0
BBX 9 18 2 0
BITMAP
1000
1800
3400
0200
7F00
E380
E380
E380
E380
E380
FF80
FF80
E380
E380
E380
E380
E380
E380
ENDCHAR
STARTCHAR $00C3
ENCODING 195
SWIDTH 693 0
DWIDTH 13 0
BBX 9 17 2 0
BITMAP
3200
2E00
0000
7F00
E380
E380
E380
E380
E380
FF80
FF80
E380
E380
E380
E380
E380
E380
ENDCHAR
STARTCHAR $00C4
ENCODING 196
SWIDTH 693 0
DWIDTH 13 0
BBX 9 17 2 0
BITMAP
6200
6200
0000
7F00
E380
E380
E380
E380
E380
FF80
FF80
E380
E380
E380
E380
E380
E380
ENDCHAR
STARTCHAR $00C5
ENCODING 197
SWIDTH 693 0
DWIDTH 13 0
BBX 9 19 2 0
BITMAP
1800
1400
1400
1C00
0000
7F00
E380
E380
E380
E380
E380
FF80
FF80
E380
E380
E380
E380
E380
E380
ENDCHAR
STARTCHAR $00C6
ENCODING 198
SWIDTH 906 0
DWIDTH 17 0
BBX 14 15 2 -1
BITMAP
7FFC
E3FC
E380
E380
E380
E380
FF80
FFF0
E380
E380
E380
E380
E380
E3FC
E3FC
ENDCHAR
STARTCHAR $00C7
ENCODING 199
SWIDTH 693 0
DWIDTH 13 0
BBX 9 18 2 -4
BITMAP
7F00
FF00
E180
E080
E000
E000
E000
E000
E000
E000
E080
E180
FF00
7E00
0800
1800
3800
2000
ENDCHAR
STARTCHAR $00C8
ENCODING 200
SWIDTH 586 0
DWIDTH 11 0
BBX 8 17 2 0
BITMAP
30
08
04
FF
E0
E0
E0
E0
E0
FC
FC
E0
E0
E0
E0
FF
FF
ENDCHAR
STARTCHAR $00C9
ENCODING 201
SWIDTH 586 0
DWIDTH 11 0
BBX 8 17 2 0
BITMAP
0C
10
20
FF
E0
E0
E0
E0
E0
FC
FC
E0
E0
E0
E0
FF
FF
ENDCHAR
STARTCHAR $00CA
ENCODING 202
SWIDTH 586 0
DWIDTH 11 0
BBX 8 18 2 0
BITMAP
10
18
2C
40
FF
E0
E0
E0
E0
E0
FC
FC
E0
E0
E0
E0
FF
FF
ENDCHAR
STARTCHAR $00CB
ENCODING 203
SWIDTH 586 0
DWIDTH 11 0
BBX 8 17 2 0
BITMAP
46
46
00
FF
E0
E0
E0
E0
E0
FC
FC
E0
E0
E0
E0
FF
FF
ENDCHAR
STARTCHAR $00CC
ENCODING 204
SWIDTH 533 0
DWIDTH 10 0
BBX 3 17 3 0
BITMAP
C0
60
00
E0
E0
E0
E0
E0
E0
E0
E0
E0
E0
E0
E0
E0
E0
ENDCHAR
STARTCHAR $00CD
ENCODING 205
SWIDTH 533 0
DWIDTH 10 0
BBX 5 17 3 0
BITMAP
18
20
40
E0
E0
E0
E0
E0
E0
E0
E0
E0
E0
E0
E0
E0
E0
ENDCHAR
STARTCHAR $00CE
ENCODING 206
SWIDTH 533 0
DWIDTH 10 0
BBX 5 18 2 0
BITMAP
20
30
58
80
70
70
70
70
70
70
70
70
70
70
70
70
70
70
ENDCHAR
STARTCHAR $00CF
ENCODING 207
SWIDTH 533 0
DWIDTH 10 0
BBX 6 17 2 0
BITMAP
8C
8C
00
70
70
70
70
70
70
70
70
70
70
70
70
70
70
ENDCHAR
STARTCHAR $00D0
ENCODING 208
SWIDTH 693 0
DWIDTH 13 0
BBX 10 14 1 0
BITMAP
7F80
7FC0
71C0
71C0
71C0
71C0
F1C0
F9C0
71C0
71C0
71C0
71C0
71C0
7F80
ENDCHAR
STARTCHAR $00D1
ENCODING 209
SWIDTH 746 0
DWIDTH 14 0
BBX 11 17 2 0
BITMAP
1900
2600
0000
8060
C060
E060
F060
F860
FC60
BE60
9FE0
8FE0
87E0
83E0
81E0
80E0
8060
ENDCHAR
STARTCHAR $00D2
ENCODING 210
SWIDTH 693 0
DWIDTH 13 0
BBX 9 17 2 0
BITMAP
2000
1000
0800
7F00
E380
E380
E380
E380
E380
E380
E380
E380
E380
E380
E380
FF80
7F00
ENDCHAR
STARTCHAR $00D3
ENCODING 211
SWIDTH 693 0
DWIDTH 13 0
BBX 9 17 2 0
BITMAP
0600
0C00
0000
7F00
E380
E380
E380
E380
E380
E380
E380
E380
E380
E380
E380
FF80
7F00
ENDCHAR
STARTCHAR $00D4
ENCODING 212
SWIDTH 693 0
DWIDTH 13 0
BBX 9 18 2 0
BITMAP
1000
1800
3400
0200
7F00
E380
E380
E380
E380
E380
E380
E380
E380
E380
E380
E380
FF80
7F00
ENDCHAR
STARTCHAR $00D5
ENCODING 213
SWIDTH 693 0
DWIDTH 13 0
BBX 9 17 2 0
BITMAP
1200
2E00
0000
7F00
E380
E380
E380
E380
E380
E380
E380
E380
E380
E380
E380
FF80
7F00
ENDCHAR
STARTCHAR $00D6
ENCODING 214
SWIDTH 693 0
DWIDTH 13 0
BBX 9 17 2 0
BITMAP
6200
6200
0000
7F00
E380
E380
E380
E380
E380
E380
E380
E380
E380
E380
E380
FF80
7F00
ENDCHAR
STARTCHAR $00D7
ENCODING 215
SWIDTH 693 0
DWIDTH 13 0
BBX 9 11 2 0
BITMAP
E380
E380
E380
E380
E300
7E00
E300
E380
E380
E380
E380
ENDCHAR
STARTCHAR $00D8
ENCODING 216
SWIDTH 693 0
DWIDTH 13 0
BBX 13 14 0 0
BITMAP
1FD8
38F0
38E0
38E0
39E0
3BE0
3EE0
3EE0
3CE0
38E0
38E0
78E0
FFE0
9FC0
ENDCHAR
STARTCHAR $00D9
ENCODING 217
SWIDTH 693 0
DWIDTH 13 0
BBX 9 17 2 0
BITMAP
2000
1000
0800
E380
E380
E380
E380
E380
E380
E380
E380
E380
E380
E380
E380
FF80
7F00
ENDCHAR
STARTCHAR $00DA
ENCODING 218
SWIDTH 693 0
DWIDTH 13 0
BBX 9 17 2 0
BITMAP
0600
0C00
0000
E380
E380
E380
E380
E380
E380
E380
E380
E380
E380
E380
E380
FF80
7F00
ENDCHAR
STARTCHAR $00DB
ENCODING 219
SWIDTH 693 0
DWIDTH 13 0
BBX 9 18 2 0
BITMAP
1000
1800
3400
0200
E380
E380
E380
E380
E380
E380
E380
E380
E380
E380
E380
E380
FF80
7F00
ENDCHAR
STARTCHAR $00DC
ENCODING 220
SWIDTH 693 0
DWIDTH 13 0
BBX 9 17 2 0
BITMAP
6200
6200
0000
E380
E380
E380
E380
E380
E380
E380
E380
E380
E380
E380
E380
FF80
7F00
ENDCHAR
STARTCHAR $00DD
ENCODING 221
SWIDTH 693 0
DWIDTH 13 0
BBX 9 17 2 0
BITMAP
0600
0C00
0000
E380
E380
E380
E380
E380
6300
3600
1C00
1C00
1C00
1C00
1C00
1C00
1C00
ENDCHAR
STARTCHAR $00DE
ENCODING 222
SWIDTH 693 0
DWIDTH 13 0
BBX 9 14 2 0
BITMAP
E000
E000
E000
FE00
E380
E380
E380
E380
E380
FF80
FF00
E000
E000
E000
ENDCHAR
STARTCHAR $00DF
ENCODING 223
SWIDTH 746 0
DWIDTH 14 0
BBX 11 15 2 -1
BITMAP
1F80
3FC0
71E0
71E0
71C0
73C0
73C0
71C0
71E0
71E0
71E0
71E0
71E0
F3C0
F380
ENDCHAR
STARTCHAR $00E0
ENCODING 224
SWIDTH 693 0
DWIDTH 13 0
BBX 9 15 2 0
BITMAP
7000
1000
0800
0400
7F00
E380
8380
7F80
FF80
E380
E380
E380
E380
FF80
7F80
ENDCHAR
STARTCHAR $00E1
ENCODING 225
SWIDTH 693 0
DWIDTH 13 0
BBX 9 15 2 0
BITMAP
0600
0C00
1800
0000
7F00
E380
8380
7F80
FF80
E380
E380
E380
E380
FF80
7F80
ENDCHAR
STARTCHAR $00E2
ENCODING 226
SWIDTH 693 0
DWIDTH 13 0
BBX 9 16 2 0
BITMAP
0800
1C00
3600
4000
0000
7F00
E380
8380
7F80
FF80
E380
E380
E380
E380
FF80
7F80
ENDCHAR
STARTCHAR $00E3
ENCODING 227
SWIDTH 693 0
DWIDTH 13 0
BBX 9 15 2 0
BITMAP
3100
7F00
C600
0000
7F00
E380
8380
7F80
FF80
E380
E380
E380
E380
FF80
7F80
ENDCHAR
STARTCHAR $00E4
ENCODING 228
SWIDTH 693 0
DWIDTH 13 0
BBX 9 15 2 0
BITMAP
4200
4200
0000
0000
7F00
E380
8380
7F80
FF80
E380
E380
E380
E380
FF80
7F80
ENDCHAR
STARTCHAR $00E5
ENCODING 229
SWIDTH 693 0
DWIDTH 13 0
BBX 9 18 2 0
BITMAP
1800
3600
2200
2200
3C00
1000
0000
7F00
E380
8380
7F80
FF80
E380
E380
E380
E380
FF80
7F80
ENDCHAR
STARTCHAR $00E6
ENCODING 230
SWIDTH 1013 0
DWIDTH 19 0
BBX 15 11 2 0
BITMAP
7FFC
FF8E
FF8E
FF8E
E3FE
E3FE
E380
E380
E382
FFFE
3FF8
ENDCHAR
STARTCHAR $00E7
ENCODING 231
SWIDTH 586 0
DWIDTH 11 0
BBX 8 15 2 -4
BITMAP
7C
E6
E2
E1
E0
E0
E0
E0
E3
FE
7C
18
18
70
40
ENDCHAR
STARTCHAR $00E8
ENCODING 232
SWIDTH 693 0
DWIDTH 13 0
BBX 9 15 2 0
BITMAP
7000
1000
0800
0400
7F00
E380
E380
E380
E380
FF80
E000
E000
E180
FF00
7E00
ENDCHAR
STARTCHAR $00E9
ENCODING 233
SWIDTH 693 0
DWIDTH 13 0
BBX 9 15 2 0
BITMAP
0600
0C00
1800
0000
7F00
E380
E380
E380
E380
FF80
E000
E000
E180
FF00
7E00
ENDCHAR
STARTCHAR $00EA
ENCODING 234
SWIDTH 693 0
DWIDTH 13 0
BBX 9 16 2 0
BITMAP
0800
1C00
3600
4000
0000
7F00
E380
E380
E380
E380
FF80
E000
E000
E180
FF00
7E00
ENDCHAR
STARTCHAR $00EB
ENCODING 235
SWIDTH 693 0
DWIDTH 13 0
BBX 9 15 2 0
BITMAP
6200
6200
0000
0000
7F00
E380
E380
E380
E380
FF80
E000
E000
E180
FF00
7E00
ENDCHAR
STARTCHAR $00EC
ENCODING 236
SWIDTH 320 0
DWIDTH 6 0
BBX 5 15 0 0
BITMAP
E0
20
10
08
38
38
38
38
38
38
38
38
38
38
38
ENDCHAR
STARTCHAR $00ED
ENCODING 237
SWIDTH 320 0
DWIDTH 6 0
BBX 5 15 2 0
BITMAP
38
20
40
80
E0
E0
E0
E0
E0
E0
E0
E0
E0
E0
E0
ENDCHAR
STARTCHAR $00EE
ENCODING 238
SWIDTH 320 0
DWIDTH 6 0
BBX 6 16 0 0
BITMAP
20
30
48
84
00
38
38
38
38
38
38
38
38
38
38
38
ENDCHAR
STARTCHAR $00EF
ENCODING 239
SWIDTH 320 0
DWIDTH 6 0
BBX 6 15 0 0
BITMAP
84
84
00
00
38
38
38
38
38
38
38
38
38
38
38
ENDCHAR
STARTCHAR $00F0
ENCODING 240
SWIDTH 693 0
DWIDTH 13 0
BBX 9 15 2 0
BITMAP
1800
7F80
3380
0380
7F80
FF80
E380
E380
E380
E380
E380
E380
E380
E380
7F00
ENDCHAR
STARTCHAR $00F1
ENCODING 241
SWIDTH 693 0
DWIDTH 13 0
BBX 9 15 2 0
BITMAP
3100
7F00
CC00
0000
FF00
E380
E380
E380
E380
E380
E380
E380
E380
E380
E380
ENDCHAR
STARTCHAR $00F2
ENCODING 242
SWIDTH 693 0
DWIDTH 13 0
BBX 9 15 2 0
BITMAP
6000
1000
1800
0000
7F00
E380
E380
E380
E380
E380
E380
E380
E380
FF80
7F00
ENDCHAR
STARTCHAR $00F3
ENCODING 243
SWIDTH 693 0
DWIDTH 13 0
BBX 9 15 2 0
BITMAP
0600
0C00
1800
0000
7F00
E380
E380
E380
E380
E380
E380
E380
E380
FF80
7F00
ENDCHAR
STARTCHAR $00F4
ENCODING 244
SWIDTH 693 0
DWIDTH 13 0
BBX 9 16 2 0
BITMAP
0800
1C00
3600
4000
0000
7F00
E380
E380
E380
E380
E380
E380
E380
E380
FF80
7F00
ENDCHAR
STARTCHAR $00F5
ENCODING 245
SWIDTH 693 0
DWIDTH 13 0
BBX 9 15 2 0
BITMAP
3100
7F00
C600
0000
7F00
E380
E380
E380
E380
E380
E380
E380
E380
FF80
7F00
ENDCHAR
STARTCHAR $00F6
ENCODING 246
SWIDTH 693 0
DWIDTH 13 0
BBX 9 15 2 0
BITMAP
6200
6200
0000
0000
7F00
E380
E380
E380
E380
E380
E380
E380
E380
FF80
7F00
ENDCHAR
STARTCHAR $00F7
ENCODING 247
SWIDTH 586 0
DWIDTH 11 0
BBX 8 8 2 3
BITMAP
10
10
00
FF
FF
00
10
10
ENDCHAR
STARTCHAR $00F8
ENCODING 248
SWIDTH 693 0
DWIDTH 13 0
BBX 13 11 0 0
BITMAP
1FF0
3FF8
38E0
39E0
3BE0
3EE0
3CE0
38E0
78E0
FFE0
DFC0
ENDCHAR
STARTCHAR $00F9
ENCODING 249
SWIDTH 693 0
DWIDTH 13 0
BBX 9 15 2 0
BITMAP
7000
1000
0800
0400
E380
E380
E380
E380
E380
E380
E380
E380
E380
FF80
7F80
ENDCHAR
STARTCHAR $00FA
ENCODING 250
SWIDTH 693 0
DWIDTH 13 0
BBX 9 15 2 0
BITMAP
0600
0C00
1800
0000
E380
E380
E380
E380
E380
E380
E380
E380
E380
FF80
7F80
ENDCHAR
STARTCHAR $00FB
ENCODING 251
SWIDTH 693 0
DWIDTH 13 0
BBX 9 16 2 0
BITMAP
0800
1C00
3600
4000
0000
E380
E380
E380
E380
E380
E380
E380
E380
E380
FF80
7F80
ENDCHAR
STARTCHAR $00FC
ENCODING 252
SWIDTH 693 0
DWIDTH 13 0
BBX 9 15 2 0
BITMAP
6200
6200
0000
0000
E380
E380
E380
E380
E380
E380
E380
E380
E380
FF80
7F80
ENDCHAR
STARTCHAR $00FD
ENCODING 253
SWIDTH 693 0
DWIDTH 13 0
BBX 9 19 2 -4
BITMAP
0300
0400
0C00
1000
E380
E380
E380
E380
E380
E380
E380
E380
E380
FF80
7F80
8380
C380
FF00
7E00
ENDCHAR
STARTCHAR $00FE
ENCODING 254
SWIDTH 693 0
DWIDTH 13 0
BBX 9 17 2 -3
BITMAP
E000
E000
E000
FF00
FF80
E380
E380
E380
E380
E380
E380
E380
E380
FF00
E000
E000
E000
ENDCHAR
STARTCHAR $00FF
ENCODING 255
SWIDTH 693 0
DWIDTH 13 0
BBX 9 19 2 -4
BITMAP
6200
6200
0000
0000
E380
E380
E380
E380
E380
E380
E380
E380
E380
7F80
0380
0380
8380
FF00
3E00
ENDCHAR
STARTCHAR $0152
ENCODING 338
SWIDTH 906 0
DWIDTH 17 0
BBX 14 14 2 0
BITMAP
7FFC
FFFC
E380
E380
E380
E380
E3F0
E3F0
E380
E380
E380
E380
FFFC
7FFC
ENDCHAR
STARTCHAR $0153
ENCODING 339
SWIDTH 1013 0
DWIDTH 19 0
BBX 15 11 2 0
BITMAP
7FFC
FFFE
E38E
E38E
E3FE
E3FE
E380
E382
E386
E3FE
7EF8
ENDCHAR
STARTCHAR $0160
ENCODING 352
SWIDTH 586 0
DWIDTH 11 0
BBX 7 18 2 0
BITMAP
66
3C
18
00
7C
E6
E2
E0
E0
F0
78
3C
1E
0E
0E
8E
FE
7C
ENDCHAR
STARTCHAR $0161
ENCODING 353
SWIDTH 586 0
DWIDTH 11 0
BBX 8 16 2 0
BITMAP
E7
3C
18
00
00
7C
EE
E2
F0
F8
7C
1E
0E
8E
FE
7C
ENDCHAR
STARTCHAR $0178
ENCODING 376
SWIDTH 693 0
DWIDTH 13 0
BBX 9 17 2 0
BITMAP
6200
6200
0000
E380
E380
E380
E380
E380
6300
3600
1C00
1C00
1C00
1C00
1C00
1C00
1C00
ENDCHAR
STARTCHAR $0192
ENCODING 402
SWIDTH 533 0
DWIDTH 10 0
BBX 6 18 2 -4
BITMAP
3C
7C
70
70
70
FC
FC
70
70
70
70
70
70
70
70
70
F0
F0
ENDCHAR
STARTCHAR $02C6
ENCODING 710
SWIDTH 533 0
DWIDTH 10 0
BBX 8 3 1 13
BITMAP
18
3C
E7
ENDCHAR
STARTCHAR $02DC
ENCODING 732
SWIDTH 533 0
DWIDTH 10 0
BBX 8 3 1 12
BITMAP
33
7F
CC
ENDCHAR
STARTCHAR $2013
ENCODING 8211
SWIDTH 533 0
DWIDTH 10 0
BBX 6 2 2 6
BITMAP
FC
FC
ENDCHAR
STARTCHAR $2014
ENCODING 8212
SWIDTH 853 0
DWIDTH 16 0
BBX 12 2 2 6
BITMAP
FFF0
FFF0
ENDCHAR
STARTCHAR $2018
ENCODING 8216
SWIDTH 320 0
DWIDTH 6 0
BBX 3 7 2 8
BITMAP
40
C0
80
E0
E0
E0
E0
ENDCHAR
STARTCHAR $2019
ENCODING 8217
SWIDTH 320 0
DWIDTH 6 0
BBX 3 6 2 9
BITMAP
E0
E0
E0
60
60
C0
ENDCHAR
STARTCHAR $201A
ENCODING 8218
SWIDTH 320 0
DWIDTH 6 0
BBX 3 6 2 -1
BITMAP
E0
E0
E0
60
60
C0
ENDCHAR
STARTCHAR $201C
ENCODING 8220
SWIDTH 586 0
DWIDTH 11 0
BBX 8 7 2 8
BITMAP
42
C6
8C
EF
EF
EF
EF
ENDCHAR
STARTCHAR $201D
ENCODING 8221
SWIDTH 586 0
DWIDTH 11 0
BBX 8 6 2 9
BITMAP
EF
EF
EF
63
63
C6
ENDCHAR
STARTCHAR $201E
ENCODING 8222
SWIDTH 586 0
DWIDTH 11 0
BBX 8 6 2 -1
BITMAP
EF
EF
EF
63
67
C6
ENDCHAR
STARTCHAR $2020
ENCODING 8224
SWIDTH 426 0
DWIDTH 8 0
BBX 4 11 2 3
BITMAP
60
60
F0
F0
60
60
60
60
60
60
60
ENDCHAR
STARTCHAR $2021
ENCODING 8225
SWIDTH 426 0
DWIDTH 8 0
BBX 4 11 2 3
BITMAP
60
60
F0
60
60
60
60
F0
F0
60
60
ENDCHAR
STARTCHAR $2022
ENCODING 8226
SWIDTH 586 0
DWIDTH 11 0
BBX 9 9 1 3
BITMAP
1C00
7F00
7F00
FF80
FF80
FF80
7F00
7F00
1C00
ENDCHAR
STARTCHAR $2026
ENCODING 8230
SWIDTH 1173 0
DWIDTH 22 0
BBX 16 3 3 0
BITMAP
E3C7
E3C7
E3C7
ENDCHAR
STARTCHAR $2030
ENCODING 8240
SWIDTH 1173 0
DWIDTH 22 0
BBX 19 14 2 0
BITMAP
FFC000
888000
898000
990000
F30000
020000
060000
040000
0C4180
09F3E0
191220
191620
31B360
70E1C0
ENDCHAR
STARTCHAR $2039
ENCODING 8249
SWIDTH 586 0
DWIDTH 11 0
BBX 8 12 1 0
BITMAP
07
0E
1C
38
70
E0
60
30
38
1C
0E
07
ENDCHAR
STARTCHAR $203A
ENCODING 8250
SWIDTH 586 0
DWIDTH 11 0
BBX 8 12 2 0
BITMAP
E0
70
38
1C
0C
06
07
0E
1C
38
70
E0
ENDCHAR
STARTCHAR $2122
ENCODING 8482
SWIDTH 1013 0
DWIDTH 19 0
BBX 14 7 2 8
BITMAP
F30C
F38C
63DC
6374
6324
6304
6304
ENDCHAR
STARTCHAR $2219
ENCODING 8729
SWIDTH 320 0
DWIDTH 6 0
BBX 3 3 2 6
BITMAP
E0
E0
E0
ENDCHAR
STARTCHAR E000
ENCODING 57344
SWIDTH 0 0
DWIDTH 0 0
BBX 0 0 0 0
BITMAP
ENDCHAR
STARTCHAR E001
ENCODING 57345
SWIDTH 0 0
DWIDTH 0 0
BBX 0 0 0 0
BITMAP
ENDCHAR
STARTCHAR E002
ENCODING 57346
SWIDTH 0 0
DWIDTH 0 0
BBX 0 0 0 0
BITMAP
ENDCHAR
STARTCHAR E003
ENCODING 57347
SWIDTH 960 0
DWIDTH 18 0
BBX 15 15 1 0
BITMAP
3818
6C26
4662
8242
4242
7FFE
0270
0240
0240
3FFC
6246
4242
8242
4462
7C3E
ENDCHAR
STARTCHAR E004
ENCODING 57348
SWIDTH 906 0
DWIDTH 17 0
BBX 15 14 1 0
BITMAP
0002
0002
0006
000E
001C
0038
0070
80E0
C1C0
E380
F700
7E00
3C00
1800
ENDCHAR
STARTCHAR E005
ENCODING 57349
SWIDTH 746 0
DWIDTH 14 0
BBX 12 12 1 0
BITMAP
0200
0700
0F80
1FC0
3FC0
7FE0
FFF0
3FC0
1F80
0F80
0700
0200
ENDCHAR
STARTCHAR E006
ENCODING 57350
SWIDTH 906 0
DWIDTH 17 0
BBX 15 15 1 0
BITMAP
0040
00C0
00C0
1D38
7FFC
7FFC
FFF8
FFF0
FFF8
7FF8
7FFC
7FFE
3FFC
1FF8
0E70
ENDCHAR
STARTCHAR E007
ENCODING 57351
SWIDTH 586 0
DWIDTH 11 0
BBX 8 2 2 6
BITMAP
FF
FF
ENDCHAR
STARTCHAR E008
ENCODING 57352
SWIDTH 746 0
DWIDTH 14 0
BBX 11 8 2 3
BITMAP
0300
0200
FFE0
0C00
FFE0
FFE0
1800
1000
ENDCHAR
STARTCHAR E009
ENCODING 57353
SWIDTH 1173 0
DWIDTH 22 0
BBX 19 8 2 3
BITMAP
FC0FC0
FF3FE0
837860
81E060
81E060
83B860
FF1FE0
FE0FC0
ENDCHAR
STARTCHAR E00A
ENCODING 57354
SWIDTH 533 0
DWIDTH 10 0
BBX 6 11 2 0
BITMAP
1C
30
60
C0
C0
60
30
18
04
FC
FC
ENDCHAR
STARTCHAR E00B
ENCODING 57355
SWIDTH 533 0
DWIDTH 10 0
BBX 6 11 2 0
BITMAP
E0
30
18
0C
0C
18
30
60
80
FC
FC
ENDCHAR
STARTCHAR E00C
ENCODING 57356
SWIDTH 693 0
DWIDTH 13 0
BBX 9 13 2 0
BITMAP
7C00
7F00
0F80
3F80
7F80
E380
E380
E380
E380
E380
E380
FF00
FE00
ENDCHAR
STARTCHAR E00D
ENCODING 57357
SWIDTH 746 0
DWIDTH 14 0
BBX 11 15 2 -1
BITMAP
FFE0
FFE0
F060
7860
1C00
0E00
0780
0780
0F00
1E00
3C00
7860
F060
FFE0
FFE0
ENDCHAR
STARTCHAR E00E
ENCODING 57358
SWIDTH 853 0
DWIDTH 16 0
BBX 12 14 2 0
BITMAP
FFF0
FFF0
71E0
71E0
71E0
71E0
71E0
71E0
71E0
71E0
71E0
71E0
71E0
71E0
ENDCHAR
STARTCHAR E00F
ENCODING 57359
SWIDTH 960 0
DWIDTH 18 0
BBX 16 13 1 0
BITMAP
0003
0007
7FFE
CE38
CE38
0E38
0E38
0E38
0E38
0E38
0E38
0E38
0C30
ENDCHAR
STARTCHAR E010
ENCODING 57360
SWIDTH 533 0
DWIDTH 10 0
BBX 6 17 2 -3
BITMAP
3C
7C
70
70
70
70
70
70
70
70
70
70
70
70
70
F0
F0
ENDCHAR
STARTCHAR E011
ENCODING 57361
SWIDTH 853 0
DWIDTH 16 0
BBX 12 15 2 -1
BITMAP
3FC0
7FE0
E070
E070
E070
E070
E070
E070
E070
F0F0
3080
1180
1180
71E0
71E0
ENDCHAR
STARTCHAR E012
ENCODING 57362
SWIDTH 1013 0
DWIDTH 19 0
BBX 16 16 1 0
BITMAP
000F
001F
0018
0030
0030
0070
1060
70E0
F0C0
58C0
1980
1D80
0F00
0F00
0600
0600
ENDCHAR
STARTCHAR E013
ENCODING 57363
SWIDTH 853 0
DWIDTH 16 0
BBX 10 8 3 3
BITMAP
00C0
7F80
FF00
C0C0
01C0
7F80
C000
C000
ENDCHAR
STARTCHAR E014
ENCODING 57364
SWIDTH 800 0
DWIDTH 15 0
BBX 13 13 1 0
BITMAP
0200
0600
0700
0D00
0D80
1880
18C0
3040
3060
6020
6030
FFF0
FFF8
ENDCHAR
STARTCHAR E015
ENCODING 57365
SWIDTH 373 0
DWIDTH 7 0
BBX 0 0 0 0
BITMAP
ENDCHAR
STARTCHAR E016
ENCODING 57366
SWIDTH 800 0
DWIDTH 15 0
BBX 13 13 1 1
BITMAP
0200
0700
0D80
18C0
3060
6030
C018
6030
3060
18C0
0D80
0700
0200
ENDCHAR
STARTCHAR E017
ENCODING 57367
SWIDTH 1013 0
DWIDTH 19 0
BBX 16 16 2 0
BITMAP
0060
00E0
00C0
3E3C
7FFE
FFFC
FFFC
FFF8
FFF8
FFFC
FFFC
7FFF
7FFE
3FFE
1FFC
0E78
ENDCHAR
ENDFONT
